<svg width="34" height="34" viewBox="0 0 34 34" fill="none" xmlns="http://www.w3.org/2000/svg">
<g clip-path="url(#clip0_58_70)">
<path fill-rule="evenodd" clip-rule="evenodd" d="M0 0H34V34H0V0Z" fill="white"/>
<path fill-rule="evenodd" clip-rule="evenodd" d="M26.4163 31.6397C30.2921 31.6397 33.4632 28.4684 33.4632 24.5928V9.347C33.4632 5.78219 30.7802 2.81391 27.3341 2.3606H6.53748C3.10636 2.81391 0.517151 5.78219 0.517151 9.347V24.5928C0.517151 28.4686 3.5775 31.6397 7.45329 31.6397H26.4163Z" fill="black"/>
<path fill-rule="evenodd" clip-rule="evenodd" d="M26.4163 31.6397C30.2921 31.6397 33.4632 28.4684 33.4632 24.5928V9.347C33.4632 5.78219 30.7802 2.81391 27.3341 2.3606H6.53748C3.10636 2.81391 0.517151 5.78219 0.517151 9.347V24.5928C0.517151 28.4686 3.5775 31.6397 7.45329 31.6397H26.4163Z" fill="#E7C63D"/>
<path d="M20.1928 6.01635L18.4868 11.5001L21.7037 13.328V20.7656L18.4377 22.5801L20.0466 29.81C20.0466 29.81 25.5302 29.8052 27.5532 29.8165C31.7207 28.8287 31.8071 24.3929 31.8071 24.3929L33.48 24.4059M20.1928 4.11523H27.0658C31.7942 4.87088 31.7942 9.67201 31.7942 9.67201M31.7941 9.67201H33.4512M21.7371 13.4607L23.5071 11.5087L33.4511 11.5199M21.7526 17.0655L31.745 17.0814M33.5001 13.4428L31.7452 13.4474L31.7607 20.6878H33.5001M21.7037 20.688L23.4586 22.5893H33.4511M0.533209 24.3506L2.05985 24.344C2.05985 24.344 2.01117 28.658 6.06088 29.7724C7.03173 29.8034 13.5212 29.7879 13.5212 29.7879L15.1234 22.4433L11.9549 20.688M11.9549 20.688L11.9706 13.352L15.2098 11.646L13.6609 4.1327C13.6609 4.1327 11.9793 4.13499 7.32418 4.13728C2.69362 4.16392 2.05985 9.24145 2.10854 9.72475C1.52363 9.74521 0.531268 9.74292 0.531268 9.74292M11.9549 20.688L10.2976 22.5514L0.510984 22.5249M0.550848 11.4756L10.3041 11.4601L12.0036 13.3963M0.499871 13.3765H2.09284L2.10836 20.7369H0.499695M2.05985 17.0235L11.9549 17.028" stroke="black" stroke-width="0.3" stroke-miterlimit="2.613"/>
</g>
<defs>
<clipPath id="clip0_58_70">
<rect width="34" height="34" fill="white"/>
</clipPath>
</defs>
</svg>
