<svg width="7" height="7" viewBox="0 0 7 7" fill="none" xmlns="http://www.w3.org/2000/svg">
<g clip-path="url(#clip0_62_12)">
<path d="M1.75 6.41658H5.25C5.48206 6.41658 5.70462 6.3244 5.86872 6.1603C6.03281 5.99621 6.125 5.77365 6.125 5.54158V2.04159C6.125 1.88688 6.06354 1.7385 5.95415 1.62911C5.84475 1.51971 5.69638 1.45825 5.54167 1.45825H4.95833V0.874919C4.95833 0.797564 4.9276 0.723377 4.87291 0.668679C4.81821 0.613981 4.74402 0.583252 4.66667 0.583252C4.58931 0.583252 4.51513 0.613981 4.46043 0.668679C4.40573 0.723377 4.375 0.797564 4.375 0.874919V1.45825H2.625V0.874919C2.625 0.797564 2.59427 0.723377 2.53957 0.668679C2.48487 0.613981 2.41069 0.583252 2.33333 0.583252C2.25598 0.583252 2.18179 0.613981 2.12709 0.668679C2.0724 0.723377 2.04167 0.797564 2.04167 0.874919V1.45825H1.45833C1.30362 1.45825 1.15525 1.51971 1.04585 1.62911C0.936458 1.7385 0.875 1.88688 0.875 2.04159V5.54158C0.875 5.77365 0.967187 5.99621 1.13128 6.1603C1.29538 6.3244 1.51794 6.41658 1.75 6.41658ZM1.45833 3.64575C1.45833 3.60707 1.4737 3.56998 1.50105 3.54263C1.5284 3.51528 1.56549 3.49992 1.60417 3.49992H5.39583C5.43451 3.49992 5.4716 3.51528 5.49895 3.54263C5.5263 3.56998 5.54167 3.60707 5.54167 3.64575V5.54158C5.54167 5.61894 5.51094 5.69313 5.45624 5.74782C5.40154 5.80252 5.32735 5.83325 5.25 5.83325H1.75C1.67265 5.83325 1.59846 5.80252 1.54376 5.74782C1.48906 5.69313 1.45833 5.61894 1.45833 5.54158V3.64575Z" fill="#404040"/>
</g>
<defs>
<clipPath id="clip0_62_12">
<rect width="7" height="7" fill="white"/>
</clipPath>
</defs>
</svg>
