<svg width="14" height="14" viewBox="0 0 14 14" fill="none" xmlns="http://www.w3.org/2000/svg">
<path d="M11.9583 7.58335C11.8036 7.58335 11.6552 7.64481 11.5459 7.75421C11.4365 7.8636 11.375 8.01198 11.375 8.16669V10.5C11.375 10.6547 11.3135 10.8031 11.2041 10.9125C11.0947 11.0219 10.9464 11.0834 10.7917 11.0834H2.625C2.47029 11.0834 2.32192 11.0219 2.21252 10.9125C2.10312 10.8031 2.04167 10.6547 2.04167 10.5V4.90585L5.47167 8.34169C5.79906 8.66641 6.24138 8.84878 6.7025 8.84919C6.936 8.84977 7.16726 8.80363 7.38265 8.71346C7.59804 8.6233 7.79321 8.49094 7.95667 8.32419L8.47583 7.81085C8.55572 7.6982 8.59304 7.56086 8.58117 7.42327C8.5693 7.28568 8.509 7.15677 8.41099 7.05947C8.31299 6.96217 8.18365 6.90279 8.04598 6.89191C7.90831 6.88102 7.77124 6.91933 7.65917 7.00002L7.11667 7.53085C7.00762 7.63773 6.86102 7.6976 6.70833 7.6976C6.55564 7.6976 6.40904 7.63773 6.3 7.53085L2.86417 4.08335H5.54167C5.69638 4.08335 5.84475 4.02189 5.95414 3.9125C6.06354 3.8031 6.125 3.65473 6.125 3.50002C6.125 3.34531 6.06354 3.19694 5.95414 3.08754C5.84475 2.97814 5.69638 2.91669 5.54167 2.91669H2.625C2.16087 2.91669 1.71575 3.10106 1.38756 3.42925C1.05937 3.75744 0.875 4.20256 0.875 4.66669V10.5C0.875 10.9641 1.05937 11.4093 1.38756 11.7375C1.71575 12.0656 2.16087 12.25 2.625 12.25H10.7917C11.2558 12.25 11.7009 12.0656 12.0291 11.7375C12.3573 11.4093 12.5417 10.9641 12.5417 10.5V8.16669C12.5417 8.01198 12.4802 7.8636 12.3708 7.75421C12.2614 7.64481 12.113 7.58335 11.9583 7.58335ZM12.5708 2.33335C12.2753 2.0484 11.897 1.86443 11.4904 1.80783C11.0837 1.75124 10.6696 1.82494 10.3075 2.01835C9.90844 1.79888 9.4437 1.73039 8.99829 1.82543C8.55288 1.92046 8.15657 2.17267 7.88184 2.53591C7.6071 2.89915 7.47232 3.34915 7.50212 3.80361C7.53193 4.25807 7.72434 4.68661 8.04417 5.01085L9.91667 6.83085C10.0285 6.93745 10.1764 6.99787 10.3308 7.00002C10.4076 7.00046 10.4837 6.98575 10.5548 6.95672C10.6258 6.92769 10.6905 6.88492 10.745 6.83085L12.5942 4.98169C12.9353 4.62383 13.1237 4.14718 13.1193 3.65279C13.115 3.1584 12.9182 2.68514 12.5708 2.33335ZM11.7483 4.15335L10.3075 5.59419L8.8725 4.15335C8.80509 4.08479 8.75184 4.00362 8.7158 3.91448C8.67975 3.82534 8.66162 3.72998 8.66243 3.63383C8.66407 3.43965 8.74278 3.25408 8.88125 3.11794C9.01971 2.98179 9.20659 2.90623 9.40077 2.90787C9.59495 2.90951 9.78052 2.98822 9.91667 3.12669C9.97089 3.18136 10.0354 3.22476 10.1065 3.25437C10.1776 3.28399 10.2538 3.29923 10.3308 3.29923C10.4078 3.29923 10.4841 3.28399 10.5552 3.25437C10.6263 3.22476 10.6908 3.18136 10.745 3.12669C10.8837 2.9954 11.0674 2.92224 11.2583 2.92224C11.4493 2.92224 11.633 2.9954 11.7717 3.12669C11.9026 3.267 11.9734 3.45293 11.969 3.64477C11.9647 3.83661 11.8855 4.01913 11.7483 4.15335Z" fill="#303030"/>
</svg>
