<svg width="11" height="11" viewBox="0 0 11 11" fill="none" xmlns="http://www.w3.org/2000/svg">
<path d="M5.5 0C3.22197 0 1.375 1.84697 1.375 4.125C1.375 5.02202 1.66908 5.84513 2.15789 6.51922C2.16666 6.53538 2.16803 6.55342 2.178 6.56889L4.928 10.6939C5.05553 10.8852 5.27038 11 5.5 11C5.72963 11 5.94447 10.8852 6.072 10.6939L8.822 6.56889C8.83214 6.55342 8.83334 6.53538 8.84211 6.51922C9.33092 5.84513 9.625 5.02202 9.625 4.125C9.625 1.84697 7.77803 0 5.5 0ZM5.5 5.5C4.74066 5.5 4.125 4.88434 4.125 4.125C4.125 3.36566 4.74066 2.75 5.5 2.75C6.25934 2.75 6.875 3.36566 6.875 4.125C6.875 4.88434 6.25934 5.5 5.5 5.5Z" fill="#303030"/>
</svg>
