<svg width="92" height="51" viewBox="0 0 92 51" fill="none" xmlns="http://www.w3.org/2000/svg">
<path d="M5.49686 20.7958C5.84753 20.7958 6.19382 20.7324 6.53573 20.6056C6.87764 20.4872 7.1801 20.2843 7.44311 19.9969C7.71488 19.718 7.93406 19.3502 8.10063 18.8937C8.2672 18.4372 8.35049 17.8793 8.35049 17.2199C8.35049 16.5098 8.16638 15.8209 7.79817 15.153C7.43873 14.4852 6.98285 13.83 6.43053 13.1876C5.88698 12.5366 5.29522 11.8942 4.65523 11.2602C4.02401 10.6177 3.43225 9.96676 2.87993 9.30738C2.33638 8.63955 1.8805 7.95481 1.51229 7.25317C1.15285 6.54307 0.973127 5.80338 0.973127 5.0341C0.973127 4.26483 1.11778 3.57163 1.40709 2.95452C1.70516 2.32896 2.10406 1.80061 2.60377 1.36948C3.11225 0.929893 3.69964 0.59175 4.36592 0.35505C5.04098 0.11835 5.75986 0 6.52258 0C7.33791 0 8.06118 0.0845357 8.6924 0.253607C9.33238 0.414225 9.87155 0.638245 10.3099 0.925666C10.757 1.20463 11.0945 1.53855 11.3225 1.92741C11.5504 2.30783 11.6644 2.7136 11.6644 3.14473C11.6644 3.34762 11.6337 3.55895 11.5723 3.77875C11.511 3.99009 11.4145 4.18452 11.283 4.36204C11.1515 4.53957 10.9849 4.68751 10.7833 4.80586C10.5817 4.92421 10.345 4.98338 10.0732 4.98338C9.74881 4.98338 9.50772 4.89039 9.34991 4.70441C9.20088 4.50998 9.08691 4.27328 9.008 3.99431C8.93787 3.71535 8.8765 3.41102 8.8239 3.08133C8.7713 2.74318 8.68801 2.43463 8.57404 2.15566C8.46007 1.87669 8.28912 1.64422 8.06118 1.45824C7.83324 1.26381 7.5001 1.16659 7.06175 1.16659C6.82504 1.16659 6.58834 1.21731 6.35163 1.31876C6.12369 1.4202 5.91328 1.57659 5.72041 1.78793C5.53631 1.99082 5.38727 2.25288 5.2733 2.57411C5.15933 2.89535 5.10234 3.27576 5.10234 3.71535C5.10234 4.22256 5.21193 4.71709 5.4311 5.19895C5.65028 5.6808 5.93958 6.15843 6.29903 6.63183C6.65847 7.09678 7.06613 7.56595 7.52201 8.03935C7.98666 8.5043 8.45569 8.9777 8.9291 9.45955C9.41128 9.93295 9.88031 10.4233 10.3362 10.9305C10.8008 11.4292 11.2129 11.9491 11.5723 12.4902C11.9318 13.0312 12.2211 13.5976 12.4403 14.1893C12.6594 14.7811 12.769 15.4024 12.769 16.0533C12.769 17.0086 12.5761 17.8624 12.1904 18.6148C11.8134 19.3587 11.2962 19.9842 10.6387 20.4915C9.9899 21.0071 9.22718 21.4002 8.35049 21.6707C7.47379 21.9412 6.54012 22.0765 5.54946 22.0765C4.65523 22.0765 3.86183 21.9666 3.16924 21.7468C2.48542 21.5355 1.9068 21.2523 1.43339 20.8972C0.959977 20.5422 0.600534 20.1364 0.35506 19.6799C0.118353 19.2319 0 18.7669 0 18.2851C0 18.0822 0.0306842 17.8666 0.0920526 17.6384C0.162188 17.4017 0.258624 17.1861 0.381361 16.9917C0.512864 16.7973 0.675052 16.6366 0.867925 16.5098C1.0608 16.3746 1.28435 16.3069 1.53859 16.3069C1.8016 16.3069 2.01201 16.3703 2.16981 16.4971C2.33638 16.624 2.46789 16.793 2.56432 17.0044C2.66076 17.2157 2.73966 17.4566 2.80103 17.7271C2.8624 17.9977 2.92815 18.2724 2.99828 18.5514C3.06842 18.8303 3.15609 19.1051 3.26129 19.3756C3.3665 19.6461 3.51115 19.887 3.69525 20.0984C3.87936 20.3097 4.11607 20.4788 4.40537 20.6056C4.69468 20.7324 5.05851 20.7958 5.49686 20.7958Z" fill="white"/>
<path d="M18.6604 13.1369C18.6604 13.4074 18.6998 13.7032 18.7787 14.0245C18.8664 14.3373 18.9891 14.6543 19.1469 14.9755C19.3047 15.2967 19.4976 15.6053 19.7256 15.9012C19.9623 16.1886 20.2297 16.4464 20.5277 16.6747C20.8346 16.9029 21.1721 17.0847 21.5403 17.2199C21.9085 17.3552 22.3118 17.4228 22.7501 17.4228C23.057 17.4228 23.3419 17.389 23.6049 17.3214C23.8679 17.2537 24.1134 17.1608 24.3413 17.0424C24.5693 16.9241 24.7885 16.7888 24.9989 16.6366C25.2093 16.476 25.4197 16.3069 25.6301 16.1294L25.9588 16.4337C25.7572 16.6958 25.4986 16.9832 25.183 17.296C24.8674 17.6088 24.486 17.9047 24.0389 18.1836C23.5918 18.4542 23.0701 18.6824 22.474 18.8684C21.8778 19.0459 21.1984 19.1347 20.4357 19.1347C19.673 19.1347 18.9278 19.0036 18.2001 18.7416C17.4812 18.4711 16.8412 18.0695 16.2802 17.5369C15.7191 17.0044 15.2676 16.3408 14.9257 15.5461C14.5925 14.7515 14.426 13.8216 14.426 12.7564C14.426 11.9872 14.5268 11.2813 14.7284 10.6388C14.9301 9.99635 15.2018 9.41728 15.5437 8.90161C15.8944 8.38595 16.2977 7.93368 16.7536 7.54481C17.2182 7.15595 17.7048 6.83471 18.2133 6.58111C18.7217 6.31905 19.239 6.12461 19.765 5.99781C20.2998 5.86255 20.8127 5.79492 21.3036 5.79492C21.9524 5.79492 22.5178 5.86255 23 5.99781C23.4822 6.13307 23.8811 6.31482 24.1967 6.54307C24.5211 6.77131 24.7621 7.0376 24.92 7.34193C25.0778 7.6378 25.1567 7.95059 25.1567 8.28028C25.1567 8.67759 25.0383 9.03687 24.8016 9.35811C24.5649 9.67089 24.2493 9.94563 23.8548 10.1823L18.6604 13.1369ZM21.3036 10.5627C21.4176 10.4951 21.5096 10.4317 21.5798 10.3725C21.6587 10.3049 21.72 10.2288 21.7639 10.1443C21.8077 10.0513 21.8384 9.9414 21.8559 9.8146C21.8822 9.67934 21.8954 9.5145 21.8954 9.32006C21.8954 9.10873 21.8691 8.87625 21.8165 8.62265C21.7726 8.36058 21.6937 8.11543 21.5798 7.88718C21.4658 7.65894 21.3211 7.46873 21.1458 7.31657C20.9705 7.1644 20.7601 7.08832 20.5146 7.08832C20.199 7.08832 19.9272 7.18131 19.6993 7.36729C19.4801 7.54481 19.296 7.77729 19.1469 8.06471C19.0067 8.35213 18.8927 8.68182 18.805 9.05378C18.7261 9.41728 18.6648 9.78501 18.6209 10.157C18.5771 10.5289 18.5508 10.8882 18.542 11.2348C18.5333 11.5729 18.5289 11.8604 18.5289 12.0971L21.3036 10.5627Z" fill="white"/>
<path d="M27.8919 8.02667C27.8919 7.78151 27.8306 7.57018 27.7078 7.39265C27.5939 7.20667 27.3966 7.11368 27.1161 7.11368C26.967 7.11368 26.8399 7.13904 26.7347 7.18976C26.6295 7.24049 26.5155 7.31234 26.3928 7.40533L26.1166 7.08832C26.3183 6.9277 26.5418 6.77131 26.7873 6.61915C27.0415 6.45853 27.3133 6.31905 27.6026 6.2007C27.8919 6.08235 28.2032 5.98513 28.5363 5.90905C28.8694 5.83297 29.2201 5.79492 29.5883 5.79492C29.9828 5.79492 30.3204 5.8541 30.6009 5.97245C30.8815 6.0908 31.1138 6.23451 31.2979 6.40358C31.4908 6.5642 31.6354 6.7375 31.7318 6.92348C31.8283 7.101 31.8853 7.25317 31.9028 7.37997C32.0781 7.14327 32.2842 6.9277 32.5209 6.73327C32.7663 6.53884 33.0294 6.37399 33.3099 6.23874C33.5992 6.09503 33.9017 5.98513 34.2173 5.90905C34.5416 5.83297 34.8748 5.79492 35.2167 5.79492C35.918 5.79492 36.5536 5.93441 37.1235 6.21338C37.6933 6.49234 38.1799 6.90657 38.5832 7.45605C38.9952 8.00553 39.3108 8.68605 39.53 9.49759C39.7492 10.3091 39.8588 11.2475 39.8588 12.3126C39.8588 13.5469 39.7229 14.5993 39.4511 15.47C39.1881 16.3323 38.8374 17.0382 38.3991 17.5877C37.9695 18.1371 37.4742 18.5387 36.9131 18.7923C36.3608 19.0374 35.7953 19.16 35.2167 19.16C34.7345 19.16 34.3093 19.1135 33.9411 19.0205C33.5817 18.9276 33.2704 18.8134 33.0074 18.6782C32.7444 18.5429 32.5253 18.4077 32.3499 18.2724C32.1746 18.1287 32.0343 18.0103 31.9291 17.9173V24.1054C31.9291 24.2153 31.9116 24.3463 31.8765 24.4985C31.8414 24.6506 31.7538 24.7943 31.6135 24.9296C31.482 25.0733 31.2803 25.1959 31.0086 25.2973C30.7456 25.3988 30.3817 25.4495 29.9171 25.4495C29.4524 25.4495 29.0842 25.3945 28.8125 25.2846C28.5495 25.1832 28.3478 25.0564 28.2075 24.9042C28.0673 24.7605 27.9796 24.6126 27.9445 24.4604C27.9095 24.3167 27.8919 24.1984 27.8919 24.1054V8.02667ZM31.9291 16.1041C31.9291 16.1717 31.9598 16.29 32.0212 16.4591C32.0825 16.6282 32.179 16.8015 32.3105 16.979C32.442 17.1565 32.6085 17.3171 32.8102 17.4609C33.0206 17.5961 33.2748 17.6637 33.5729 17.6637C33.9586 17.6637 34.2874 17.5243 34.5592 17.2453C34.831 16.9579 35.0545 16.5732 35.2298 16.0914C35.4052 15.6011 35.5323 15.0347 35.6112 14.3922C35.6901 13.7413 35.7296 13.0481 35.7296 12.3126C35.7296 11.4081 35.677 10.643 35.5718 10.0175C35.4753 9.39192 35.3307 8.88893 35.1378 8.50852C34.9449 8.11966 34.7126 7.84069 34.4408 7.67162C34.1778 7.49409 33.8797 7.40533 33.5466 7.40533C33.3537 7.40533 33.1609 7.46028 32.968 7.57018C32.7751 7.67162 32.5998 7.80265 32.442 7.96327C32.2929 8.11543 32.1702 8.28873 32.0738 8.48316C31.9773 8.67759 31.9291 8.86357 31.9291 9.0411V16.1041Z" fill="white"/>
<path d="M46.6181 6.88544V16.2562C46.6181 16.7043 46.7057 17.017 46.8811 17.1946C47.0564 17.3636 47.2975 17.4482 47.6043 17.4482C47.8411 17.4482 48.0515 17.3848 48.2356 17.258C48.4197 17.1312 48.5775 16.9875 48.709 16.8268C48.8668 16.6493 49.0027 16.4422 49.1166 16.2055L49.5243 16.383C49.3928 16.6535 49.235 16.9494 49.0509 17.2707C48.8755 17.5919 48.6388 17.892 48.3408 18.171C48.0427 18.4415 47.6657 18.6697 47.2098 18.8557C46.7627 19.0417 46.1973 19.1347 45.5134 19.1347C45.1277 19.1347 44.7551 19.0797 44.3957 18.9698C44.045 18.8599 43.7294 18.6866 43.4488 18.4499C43.1771 18.2132 42.9579 17.9173 42.7913 17.5623C42.6247 17.2072 42.5415 16.7803 42.5415 16.2816V6.88544H41.0686V5.97245C41.3141 5.97245 41.656 5.91327 42.0943 5.79492C42.5327 5.66812 42.9798 5.46101 43.4357 5.17359C43.9003 4.88617 44.3299 4.50153 44.7244 4.01967C45.1189 3.53782 45.3995 2.94184 45.566 2.23174H46.6181V5.97245H48.7616C49.4629 5.97245 49.8136 5.85833 49.8136 5.63008C49.8136 5.54554 49.7698 5.4906 49.6821 5.46524C49.5944 5.43142 49.4936 5.39338 49.3796 5.35111C49.2744 5.30039 49.178 5.23276 49.0903 5.14823C49.0027 5.06369 48.9588 4.92421 48.9588 4.72977C48.9588 4.49307 49.0334 4.3071 49.1824 4.17184C49.3402 4.03658 49.5418 3.96895 49.7873 3.96895C49.9451 3.96895 50.081 4.00277 50.195 4.0704C50.3177 4.12957 50.4185 4.21411 50.4974 4.324C50.5763 4.42545 50.6333 4.5438 50.6684 4.67905C50.7122 4.81431 50.7341 4.94957 50.7341 5.08482C50.7341 5.63431 50.5676 6.07389 50.2344 6.40358C49.91 6.72482 49.384 6.88544 48.6564 6.88544H46.6181Z" fill="white"/>
<path d="M55.8891 17.8159C55.8891 17.9258 55.8672 18.0611 55.8233 18.2217C55.7883 18.3738 55.6962 18.5218 55.5472 18.6655C55.4069 18.8007 55.2009 18.9149 54.9291 19.0079C54.6573 19.1093 54.2891 19.16 53.8245 19.16C53.3598 19.16 52.996 19.1051 52.733 18.9952C52.47 18.8937 52.2727 18.7712 52.1412 18.6274C52.0097 18.4837 51.9264 18.3358 51.8914 18.1836C51.8651 18.0315 51.8519 17.9089 51.8519 17.8159V8.02667C51.8519 7.78151 51.7905 7.57018 51.6678 7.39265C51.5538 7.20667 51.3566 7.11368 51.076 7.11368C50.927 7.11368 50.7999 7.13904 50.6947 7.18976C50.5895 7.24049 50.4755 7.31234 50.3528 7.40533L50.0766 7.08832C50.2783 6.9277 50.5018 6.77131 50.7473 6.61915C51.0015 6.45853 51.2733 6.31905 51.5626 6.2007C51.8519 6.08235 52.1631 5.98513 52.4963 5.90905C52.8294 5.83297 53.1801 5.79492 53.5483 5.79492C54.1182 5.79492 54.5609 5.87101 54.8765 6.02317C55.1921 6.16688 55.4244 6.34863 55.5735 6.56843C55.7225 6.77977 55.8102 7.00801 55.8365 7.25317C55.8715 7.49832 55.8891 7.71389 55.8891 7.89986V17.8159ZM51.4443 2.9038C51.4443 2.6671 51.4969 2.44308 51.6021 2.23174C51.716 2.01195 51.8694 1.82175 52.0623 1.66113C52.264 1.50051 52.4919 1.37371 52.7461 1.28072C53.0091 1.18773 53.2941 1.14123 53.6009 1.14123C53.899 1.14123 54.1751 1.18773 54.4294 1.28072C54.6924 1.37371 54.9203 1.50051 55.1132 1.66113C55.3061 1.82175 55.4551 2.01195 55.5603 2.23174C55.6743 2.44308 55.7313 2.6671 55.7313 2.9038C55.7313 3.14896 55.6743 3.3772 55.5603 3.58854C55.4551 3.79988 55.3061 3.98586 55.1132 4.14648C54.9203 4.29864 54.6924 4.42122 54.4294 4.51421C54.1751 4.6072 53.899 4.65369 53.6009 4.65369C53.2941 4.65369 53.0091 4.6072 52.7461 4.51421C52.4919 4.42122 52.264 4.29864 52.0623 4.14648C51.8694 3.98586 51.716 3.79988 51.6021 3.58854C51.4969 3.3772 51.4443 3.14896 51.4443 2.9038Z" fill="white"/>
<path d="M10.8885 33.1841C10.0557 33.1672 9.29293 33.256 8.60034 33.4504C7.91652 33.6364 7.32914 33.9491 6.83819 34.3887C6.35601 34.8199 5.97904 35.382 5.70726 36.0752C5.44425 36.76 5.31275 37.5884 5.31275 38.5606C5.31275 38.941 5.33467 39.3298 5.3785 39.7272C5.42234 40.1245 5.49686 40.5091 5.60206 40.8811C5.71603 41.2446 5.86068 41.5912 6.03602 41.9209C6.21136 42.2506 6.43053 42.538 6.69354 42.7831C6.95655 43.0198 7.26339 43.21 7.61407 43.3537C7.96474 43.4975 8.3724 43.5693 8.83705 43.5693C9.38937 43.5693 9.86716 43.4383 10.2704 43.1762C10.6825 42.9142 11.02 42.5802 11.283 42.1745C11.546 41.7602 11.7433 41.3038 11.8748 40.805C12.0063 40.2978 12.072 39.8075 12.072 39.3341C12.072 38.9706 12.0238 38.6409 11.9274 38.345C11.8397 38.0491 11.7082 37.7955 11.5329 37.5842C11.3663 37.3644 11.1603 37.1953 10.9148 37.077C10.6693 36.9586 10.3976 36.8994 10.0995 36.8994C9.77511 36.8994 9.4858 36.9628 9.23156 37.0896C8.98609 37.208 8.86335 37.3602 8.86335 37.5461C8.86335 37.6729 8.9291 37.7617 9.06061 37.8124C9.20088 37.8547 9.34991 37.9139 9.50772 37.99C9.67429 38.0576 9.82333 38.159 9.95483 38.2943C10.0951 38.4295 10.1652 38.6409 10.1652 38.9283C10.1652 39.2664 10.0469 39.5327 9.81018 39.7272C9.58224 39.9216 9.28416 40.0188 8.91595 40.0188C8.68801 40.0188 8.48637 39.9723 8.31104 39.8793C8.14446 39.7779 7.99981 39.6511 7.87707 39.4989C7.7631 39.3383 7.67543 39.1608 7.61407 38.9663C7.5527 38.7635 7.52201 38.5606 7.52201 38.3577C7.52201 37.842 7.65352 37.4236 7.91652 37.1023C8.17953 36.7726 8.52144 36.5106 8.94225 36.3161C9.37183 36.1217 9.85839 35.978 10.4019 35.885C10.9543 35.7836 11.5153 35.6948 12.0852 35.6187C12.655 35.5426 13.2117 35.4623 13.7553 35.3778C14.3076 35.2933 14.7942 35.1665 15.215 34.9974C15.6446 34.8283 15.9909 34.6043 16.2539 34.3253C16.5169 34.0464 16.6484 33.6744 16.6484 33.2095C16.6484 32.9474 16.5958 32.753 16.4906 32.6262C16.3941 32.4994 16.2845 32.4106 16.1618 32.3599C16.0128 32.3007 15.8506 32.2796 15.6752 32.2965C15.5437 32.2965 15.4298 32.3134 15.3333 32.3472C15.2369 32.3726 15.1448 32.4064 15.0572 32.4486C14.9783 32.4824 14.895 32.5163 14.8073 32.5501C14.7196 32.5754 14.6232 32.5881 14.518 32.5881C14.3076 32.5881 14.1103 32.5078 13.9262 32.3472C13.7509 32.1781 13.6632 31.9118 13.6632 31.5483C13.6632 31.2102 13.729 30.9228 13.8605 30.6861C13.992 30.4494 14.1586 30.2549 14.3602 30.1028C14.5618 29.9506 14.781 29.8407 15.0177 29.7731C15.2632 29.697 15.4999 29.659 15.7278 29.659C16.175 29.659 16.5651 29.735 16.8982 29.8872C17.2401 30.0309 17.5251 30.2253 17.753 30.4705C17.9897 30.7072 18.165 30.9777 18.279 31.282C18.393 31.5779 18.45 31.8738 18.45 32.1697C18.45 32.7699 18.3667 33.2982 18.2001 33.7547C18.0335 34.2028 17.7925 34.5916 17.4768 34.9213C17.1612 35.251 16.7711 35.5257 16.3065 35.7455C15.8506 35.9569 15.3289 36.1259 14.7416 36.2527C15.0133 36.5486 15.2237 36.9206 15.3728 37.3686C15.5218 37.8082 15.5963 38.3365 15.5963 38.9537C15.5963 39.6384 15.4385 40.3274 15.1229 41.0206C14.8073 41.7053 14.3339 42.3224 13.7027 42.8719C13.0715 43.4129 12.2824 43.8567 11.3356 44.2033C10.3976 44.5415 9.30608 44.7105 8.06118 44.7105C7.00915 44.7105 6.0404 44.5753 5.15495 44.3048C4.26949 44.0258 3.50677 43.6243 2.86678 43.1001C2.23556 42.5676 1.74023 41.9209 1.38079 41.16C1.02135 40.3992 0.841624 39.5327 0.841624 38.5606C0.841624 37.8758 0.93806 37.2545 1.13093 36.6966C1.3238 36.1386 1.57804 35.6441 1.89365 35.213C2.21803 34.7818 2.58186 34.4056 2.98513 34.0844C3.39718 33.7632 3.81361 33.4926 4.23442 33.2729C4.65523 33.0531 5.06728 32.884 5.47055 32.7656C5.87383 32.6388 6.23328 32.5543 6.54888 32.512C6.42615 32.4782 6.26396 32.4275 6.06232 32.3599C5.86945 32.2838 5.65904 32.1866 5.4311 32.0682C5.21193 31.9414 4.98837 31.7935 4.76043 31.6244C4.53249 31.4469 4.32647 31.2398 4.14237 31.0031C3.96703 30.7664 3.82237 30.4959 3.7084 30.1915C3.59443 29.8787 3.53745 29.5279 3.53745 29.1391C3.53745 28.5811 3.66457 28.0824 3.91881 27.6428C4.17305 27.1947 4.52373 26.8186 4.97084 26.5142C5.41795 26.2014 5.93958 25.9647 6.53573 25.8041C7.14065 25.6351 7.78502 25.5505 8.46884 25.5505C9.25786 25.5505 9.9373 25.6139 10.5071 25.7407C11.077 25.8591 11.546 26.0281 11.9142 26.2479C12.2912 26.4593 12.5674 26.7087 12.7427 26.9961C12.9268 27.2835 13.0189 27.5878 13.0189 27.9091C13.0189 28.0612 12.9926 28.2176 12.94 28.3782C12.8961 28.5389 12.8216 28.6868 12.7164 28.8221C12.6112 28.9573 12.4753 29.0714 12.3087 29.1644C12.1509 29.249 11.9625 29.2912 11.7433 29.2912C11.489 29.2912 11.3006 29.2236 11.1778 29.0883C11.0638 28.9531 10.9806 28.784 10.928 28.5811C10.8754 28.3782 10.8315 28.1627 10.7965 27.9344C10.7702 27.6977 10.7176 27.4779 10.6387 27.275C10.5597 27.0722 10.4282 26.9031 10.2441 26.7678C10.0688 26.6326 9.80579 26.5649 9.45512 26.5649C9.18334 26.5649 8.92472 26.6368 8.67924 26.7805C8.43377 26.9242 8.2146 27.1271 8.02173 27.3892C7.83762 27.6512 7.68858 27.964 7.57461 28.3275C7.46941 28.691 7.41681 29.0883 7.41681 29.5195C7.41681 29.9168 7.49133 30.293 7.64037 30.648C7.7894 30.9946 8.00858 31.3032 8.29788 31.5737C8.59596 31.8442 8.95979 32.0682 9.38937 32.2457C9.81894 32.4233 10.3187 32.5374 10.8885 32.5881V33.1841Z" fill="white"/>
<path d="M31.5872 32.3218C31.5872 31.5526 31.5784 30.8467 31.5609 30.2042C31.5521 29.5617 31.539 29.0038 31.5214 28.5304C31.5127 28.0485 31.4995 27.6681 31.482 27.3892C31.4732 27.1102 31.4688 26.9454 31.4688 26.8946C31.2935 26.7763 31.0919 26.7129 30.8639 26.7044C30.6447 26.696 30.4256 26.6917 30.2064 26.6917C29.8996 26.6917 29.5314 26.7636 29.1018 26.9073C28.6722 27.0426 28.2558 27.2412 27.8525 27.5033C27.4492 27.7569 27.1073 28.0739 26.8268 28.4543C26.5462 28.8263 26.4059 29.2447 26.4059 29.7097C26.4059 29.9802 26.441 30.1958 26.5111 30.3564C26.5901 30.517 26.6777 30.6396 26.7742 30.7241C26.8794 30.8002 26.9802 30.8509 27.0766 30.8763C27.1818 30.8932 27.2563 30.9016 27.3002 30.9016C27.5193 30.9016 27.6991 30.8678 27.8393 30.8002C27.9796 30.7241 28.1067 30.648 28.2207 30.5719C28.3347 30.4874 28.4399 30.4113 28.5363 30.3437C28.6415 30.2676 28.7599 30.2296 28.8914 30.2296C28.9966 30.2296 29.1062 30.2549 29.2201 30.3057C29.3429 30.3479 29.4524 30.4198 29.5489 30.5212C29.6541 30.6227 29.7418 30.7579 29.8119 30.927C29.882 31.0876 29.9171 31.2863 29.9171 31.523C29.9171 31.8611 29.847 32.1528 29.7067 32.3979C29.5752 32.6431 29.3998 32.8502 29.1807 33.0192C28.9703 33.1799 28.7248 33.3024 28.4443 33.387C28.1725 33.4631 27.9007 33.5011 27.6289 33.5011C27.2081 33.5011 26.8268 33.4335 26.4848 33.2982C26.1517 33.1545 25.8668 32.9601 25.6301 32.7149C25.3934 32.4698 25.2136 32.1823 25.0909 31.8527C24.9682 31.523 24.9068 31.1721 24.9068 30.8002C24.9068 29.921 25.0953 29.156 25.4723 28.505C25.858 27.8457 26.3665 27.2962 26.9977 26.8566C27.6377 26.417 28.3697 26.0915 29.1938 25.8802C30.0267 25.6604 30.8858 25.5505 31.7713 25.5505C32.5691 25.5505 33.2266 25.6012 33.7439 25.7027C34.2611 25.8041 34.6819 25.9394 35.0063 26.1085C35.3307 26.2775 35.5849 26.4804 35.769 26.7171C35.9531 26.9454 36.1109 27.1863 36.2424 27.4399C36.7772 28.4881 37.2945 29.5195 37.7942 30.5339C38.3026 31.5483 38.7892 32.5374 39.2539 33.5011C39.7273 34.4648 40.1832 35.3947 40.6215 36.2908C41.0686 37.1784 41.5026 38.0195 41.9234 38.8142V33.0827C41.9234 32.381 41.9409 31.6963 41.976 31.0284C42.0198 30.3521 42.1031 29.7181 42.2258 29.1264C42.3573 28.5262 42.5502 27.9767 42.8045 27.4779C43.0587 26.9792 43.3962 26.548 43.817 26.1845C44.2466 25.821 44.777 25.5378 45.4082 25.335C46.0395 25.1321 46.7978 25.0306 47.6832 25.0306C48.1304 25.0306 48.5424 25.0644 48.9194 25.1321C49.2964 25.1912 49.6207 25.28 49.8925 25.3984C50.173 25.5167 50.3922 25.6646 50.55 25.8422C50.7078 26.0112 50.7867 26.2014 50.7867 26.4128C50.7867 26.548 50.7648 26.6917 50.721 26.8439C50.6859 26.9876 50.6289 27.1187 50.55 27.237C50.4711 27.3554 50.3703 27.4568 50.2476 27.5413C50.1336 27.6174 49.9977 27.6555 49.8399 27.6555C49.7084 27.6555 49.5857 27.5667 49.4717 27.3892C49.3665 27.2116 49.2306 27.0172 49.064 26.8059C48.9062 26.5861 48.6914 26.3874 48.4197 26.2099C48.1567 26.0324 47.7972 25.9436 47.3413 25.9436C46.6312 25.9436 46.0395 26.0662 45.566 26.3113C45.1014 26.548 44.7244 26.8862 44.4351 27.3258C44.1458 27.7654 43.931 28.3022 43.7907 28.9362C43.6592 29.5617 43.5759 30.2592 43.5409 31.0284C43.5233 31.561 43.5058 32.0809 43.4883 32.5881C43.4795 33.0869 43.4707 33.5941 43.462 34.1098C43.462 34.6254 43.462 35.1622 43.462 35.7202C43.462 36.2696 43.462 36.8614 43.462 37.4954C43.462 38.3915 43.4664 39.1946 43.4751 39.9047C43.4839 40.6148 43.497 41.1981 43.5146 41.6546C43.9091 42.3055 44.2992 42.893 44.685 43.4171C45.0707 43.9328 45.4477 44.3682 45.8159 44.7232C46.1929 45.0867 46.5698 45.3657 46.9468 45.5601C47.3238 45.7546 47.7052 45.8518 48.0909 45.8518C48.2136 45.8518 48.332 45.8349 48.446 45.8011C48.5599 45.7672 48.6608 45.7292 48.7484 45.6869C48.8449 45.6447 48.9413 45.5897 49.0377 45.5221L49.4585 46.0166C49.3358 46.1012 49.1605 46.2026 48.9325 46.3209C48.7134 46.4393 48.4416 46.5534 48.1172 46.6633C47.8016 46.7732 47.4378 46.8662 47.0257 46.9423C46.6137 47.0184 46.1622 47.0564 45.6712 47.0564C44.9611 47.0564 44.2773 46.8873 43.6198 46.5492C42.971 46.2195 42.3442 45.763 41.7393 45.1797C41.1344 44.5964 40.5557 43.9159 40.0034 43.1382C39.4511 42.352 38.9163 41.5109 38.3991 40.6148C37.8906 39.7187 37.3997 38.7846 36.9262 37.8124C36.4528 36.8403 35.9926 35.8808 35.5455 34.934C35.1071 33.9787 34.6819 33.0573 34.2699 32.1697C33.8666 31.2736 33.4721 30.4536 33.0863 29.7097C33.0863 30.2 33.0907 30.7072 33.0995 31.2313C33.1083 31.7554 33.1126 32.2838 33.1126 32.8164V36.7473C33.1126 37.4489 33.0951 38.1337 33.06 38.8015C33.025 39.4693 32.9417 40.1033 32.8102 40.7035C32.6787 41.2953 32.4858 41.8448 32.2316 42.352C31.9861 42.8508 31.6486 43.2819 31.219 43.6454C30.7894 44.0089 30.259 44.2921 29.6278 44.495C28.9966 44.6979 28.2382 44.7993 27.3528 44.7993C26.9057 44.7993 26.4936 44.7655 26.1166 44.6979C25.7397 44.6387 25.4109 44.5499 25.1304 44.4316C24.8586 44.3132 24.6482 44.1695 24.4991 44.0004C24.3413 43.8314 24.2624 43.6369 24.2624 43.4171C24.2624 43.2819 24.2844 43.1424 24.3282 42.9987C24.3633 42.8465 24.4202 42.7113 24.4991 42.5929C24.578 42.4746 24.6745 42.3774 24.7885 42.3013C24.9024 42.2167 25.0383 42.1745 25.1961 42.1745C25.2838 42.1745 25.3627 42.2167 25.4328 42.3013C25.5117 42.3858 25.5906 42.4915 25.6695 42.6183C25.7572 42.7451 25.8536 42.8846 25.9588 43.0367C26.0728 43.1804 26.2043 43.3157 26.3533 43.4425C26.5111 43.5693 26.6996 43.675 26.9188 43.7595C27.138 43.8441 27.401 43.8863 27.7078 43.8863C28.418 43.8863 29.0053 43.768 29.47 43.5313C29.9434 43.2861 30.3248 42.9437 30.6141 42.5042C30.9034 42.0561 31.1138 41.5193 31.2453 40.8938C31.3768 40.2682 31.4601 39.5665 31.4951 38.7888C31.5214 38.2562 31.539 37.7406 31.5477 37.2418C31.5565 36.743 31.5653 36.2358 31.574 35.7202C31.5828 35.2045 31.5872 34.6677 31.5872 34.1098C31.5872 33.5518 31.5872 32.9558 31.5872 32.3218Z" fill="white"/>
<path d="M47.8279 38.0153C47.8279 36.9079 47.9945 35.94 48.3276 35.1115C48.6608 34.2746 49.1035 33.5772 49.6558 33.0192C50.2169 32.4613 50.8656 32.0429 51.6021 31.7639C52.3385 31.4849 53.11 31.3454 53.9165 31.3454C54.7231 31.3454 55.4946 31.4765 56.231 31.7385C56.9674 31.9921 57.6118 32.3852 58.1641 32.9178C58.7252 33.4504 59.1723 34.1267 59.5054 34.9467C59.8386 35.7582 60.0051 36.7219 60.0051 37.8378C60.0051 38.9452 59.8386 39.9258 59.5054 40.7796C59.1723 41.6334 58.7252 42.352 58.1641 42.9353C57.6118 43.5186 56.9674 43.9624 56.231 44.2667C55.4946 44.5626 54.7231 44.7105 53.9165 44.7105C53.11 44.7105 52.3385 44.5711 51.6021 44.2921C50.8656 44.0047 50.2169 43.582 49.6558 43.0241C49.1035 42.4661 48.6608 41.7687 48.3276 40.9318C47.9945 40.0949 47.8279 39.1227 47.8279 38.0153ZM55.9154 37.8885C55.9154 37.2122 55.8891 36.5613 55.8365 35.9357C55.7926 35.3017 55.7006 34.7396 55.5603 34.2492C55.42 33.7589 55.2184 33.3701 54.9554 33.0827C54.6924 32.7868 54.3461 32.6388 53.9165 32.6388C53.4869 32.6388 53.1407 32.7952 52.8776 33.108C52.6146 33.4123 52.413 33.8181 52.2727 34.3253C52.1325 34.8241 52.0404 35.3947 51.9966 36.0372C51.9527 36.6796 51.9308 37.339 51.9308 38.0153C51.9308 38.6916 51.9527 39.3552 51.9966 40.0061C52.0404 40.6486 52.1325 41.2234 52.2727 41.7307C52.413 42.2379 52.6146 42.6479 52.8776 42.9607C53.1407 43.265 53.4869 43.4171 53.9165 43.4171C54.3461 43.4171 54.6924 43.2565 54.9554 42.9353C55.2184 42.6141 55.42 42.1914 55.5603 41.6673C55.7006 41.1431 55.7926 40.5514 55.8365 39.892C55.8891 39.2326 55.9154 38.5648 55.9154 37.8885Z" fill="white"/>
<path d="M62.6352 33.5772C62.6352 33.332 62.5738 33.1207 62.4511 32.9432C62.3371 32.7572 62.1399 32.6642 61.8593 32.6642C61.7103 32.6642 61.5832 32.6896 61.478 32.7403C61.3728 32.791 61.2588 32.8629 61.1361 32.9558L60.8599 32.6388C61.0616 32.4782 61.2851 32.3218 61.5306 32.1697C61.7848 32.009 62.0566 31.8696 62.3459 31.7512C62.6352 31.6329 62.9464 31.5356 63.2796 31.4596C63.6127 31.3835 63.9634 31.3454 64.3316 31.3454C64.7261 31.3454 65.0637 31.4046 65.3442 31.523C65.6247 31.6413 65.8571 31.785 66.0412 31.9541C66.234 32.1147 66.3787 32.288 66.4751 32.474C66.5716 32.6515 66.6285 32.8037 66.6461 32.9305C66.8214 32.6938 67.0274 32.4782 67.2642 32.2838C67.5096 32.0894 67.7726 31.9245 68.0532 31.7893C68.3425 31.6455 68.6449 31.5356 68.9605 31.4596C69.2849 31.3835 69.6181 31.3454 69.96 31.3454C70.6613 31.3454 71.2969 31.4849 71.8668 31.7639C72.4366 32.0429 72.9232 32.4571 73.3265 33.0066C73.7385 33.5561 74.0541 34.2366 74.2733 35.0481C74.4925 35.8596 74.6021 36.798 74.6021 37.8631C74.6021 39.0974 74.4662 40.1498 74.1944 41.0206C73.9314 41.8828 73.5807 42.5887 73.1424 43.1382C72.7128 43.6877 72.2175 44.0892 71.6564 44.3428C71.1041 44.588 70.5386 44.7105 69.96 44.7105C69.4778 44.7105 69.0526 44.664 68.6844 44.5711C68.3249 44.4781 68.0137 44.3639 67.7507 44.2287C67.4877 44.0934 67.2685 43.9582 67.0932 43.8229C66.9179 43.6792 66.7776 43.5609 66.6724 43.4679V49.6559C66.6724 49.7658 66.6548 49.8968 66.6198 50.049C66.5847 50.2011 66.497 50.3448 66.3568 50.4801C66.2253 50.6238 66.0236 50.7464 65.7519 50.8478C65.4888 50.9493 65.125 51 64.6604 51C64.1957 51 63.8275 50.9451 63.5557 50.8352C63.2927 50.7337 63.0911 50.6069 62.9508 50.4547C62.8106 50.311 62.7229 50.1631 62.6878 50.0109C62.6528 49.8672 62.6352 49.7489 62.6352 49.6559V33.5772ZM66.6724 41.6546C66.6724 41.7222 66.7031 41.8406 66.7644 42.0096C66.8258 42.1787 66.9222 42.352 67.0537 42.5295C67.1852 42.707 67.3518 42.8677 67.5535 43.0114C67.7639 43.1466 68.0181 43.2143 68.3162 43.2143C68.7019 43.2143 69.0307 43.0748 69.3025 42.7958C69.5742 42.5084 69.7978 42.1237 69.9731 41.6419C70.1485 41.1516 70.2756 40.5852 70.3545 39.9427C70.4334 39.2918 70.4728 38.5986 70.4728 37.8631C70.4728 36.9586 70.4202 36.1936 70.315 35.568C70.2186 34.9424 70.0739 34.4394 69.8811 34.059C69.6882 33.6702 69.4559 33.3912 69.1841 33.2221C68.9211 33.0446 68.623 32.9558 68.2899 32.9558C68.097 32.9558 67.9041 33.0108 67.7113 33.1207C67.5184 33.2221 67.3431 33.3532 67.1852 33.5138C67.0362 33.6659 66.9135 33.8392 66.817 34.0337C66.7206 34.2281 66.6724 34.4141 66.6724 34.5916V41.6546Z" fill="white"/>
<path d="M81.2956 34.021C81.6287 33.5307 81.9838 33.0869 82.3608 32.6896C82.5186 32.5205 82.6895 32.3556 82.8736 32.195C83.0577 32.0344 83.2462 31.8907 83.4391 31.7639C83.6407 31.6371 83.8468 31.5356 84.0572 31.4596C84.2676 31.3835 84.478 31.3454 84.6884 31.3454C85.1355 31.3454 85.4862 31.4765 85.7404 31.7385C85.9947 31.9921 86.1218 32.3514 86.1218 32.8164C86.1218 33.1038 86.0955 33.3828 86.0429 33.6533C85.999 33.9153 85.907 34.2366 85.7667 34.617H85.3985C85.3459 34.3549 85.2232 34.1393 85.0303 33.9703C84.8374 33.7928 84.5569 33.704 84.1887 33.704C83.9169 33.704 83.6495 33.7547 83.3865 33.8562C83.1235 33.9491 82.8649 34.0675 82.6106 34.2112C82.3652 34.3549 82.1285 34.5113 81.9005 34.6804C81.6813 34.8494 81.4797 35.0101 81.2956 35.1622V43.3918C81.2956 43.5017 81.2781 43.6327 81.243 43.7849C81.2079 43.937 81.1203 44.0807 80.98 44.216C80.8485 44.3513 80.6468 44.4654 80.3751 44.5584C80.1121 44.6598 79.7482 44.7105 79.2836 44.7105C78.8189 44.7105 78.4507 44.6556 78.179 44.5457C77.9159 44.4443 77.7143 44.3217 77.574 44.178C77.4338 44.0343 77.3461 43.8863 77.311 43.7342C77.276 43.582 77.2584 43.4594 77.2584 43.3664V33.5772C77.2584 33.332 77.1971 33.1207 77.0743 32.9432C76.9604 32.7572 76.7631 32.6642 76.4826 32.6642C76.3335 32.6642 76.2064 32.6896 76.1012 32.7403C75.996 32.791 75.882 32.8629 75.7593 32.9558L75.4831 32.6388C75.6848 32.4782 75.9083 32.3218 76.1538 32.1697C76.408 32.009 76.6798 31.8696 76.9691 31.7512C77.2584 31.6329 77.5697 31.5356 77.9028 31.4596C78.2359 31.3835 78.5866 31.3454 78.9548 31.3454C79.3318 31.3454 79.6518 31.3962 79.9148 31.4976C80.1866 31.5906 80.4058 31.7174 80.5723 31.878C80.7477 32.0302 80.8836 32.2035 80.98 32.3979C81.0764 32.5923 81.1466 32.791 81.1904 32.9939C81.243 33.1883 81.2737 33.3785 81.2824 33.5645C81.2912 33.742 81.2956 33.8942 81.2956 34.021Z" fill="white"/>
<path d="M92 43.3664C92 43.4763 91.9781 43.6116 91.9342 43.7722C91.8992 43.9244 91.8071 44.0723 91.6581 44.216C91.5178 44.3513 91.3118 44.4654 91.04 44.5584C90.7682 44.6598 90.4 44.7105 89.9354 44.7105C89.4707 44.7105 89.1069 44.6556 88.8439 44.5457C88.5809 44.4443 88.3836 44.3217 88.2521 44.178C88.1206 44.0343 88.0374 43.8863 88.0023 43.7342C87.976 43.582 87.9628 43.4594 87.9628 43.3664V33.5772C87.9628 33.332 87.9015 33.1207 87.7787 32.9432C87.6648 32.7572 87.4675 32.6642 87.187 32.6642C87.0379 32.6642 86.9108 32.6896 86.8056 32.7403C86.7004 32.791 86.5864 32.8629 86.4637 32.9558L86.1875 32.6388C86.3892 32.4782 86.6127 32.3218 86.8582 32.1697C87.1124 32.009 87.3842 31.8696 87.6735 31.7512C87.9628 31.6329 88.2741 31.5356 88.6072 31.4596C88.9403 31.3835 89.291 31.3454 89.6592 31.3454C90.2291 31.3454 90.6718 31.4215 90.9874 31.5737C91.303 31.7174 91.5354 31.8992 91.6844 32.1189C91.8334 32.3303 91.9211 32.5585 91.9474 32.8037C91.9825 33.0488 92 33.2644 92 33.4504V43.3664ZM87.5552 28.4543C87.5552 28.2176 87.6078 27.9936 87.713 27.7823C87.827 27.5625 87.9804 27.3723 88.1732 27.2116C88.3749 27.051 88.6028 26.9242 88.8571 26.8312C89.1201 26.7382 89.405 26.6917 89.7118 26.6917C90.0099 26.6917 90.2861 26.7382 90.5403 26.8312C90.8033 26.9242 91.0313 27.051 91.2241 27.2116C91.417 27.3723 91.566 27.5625 91.6712 27.7823C91.7852 27.9936 91.8422 28.2176 91.8422 28.4543C91.8422 28.6995 91.7852 28.9277 91.6712 29.1391C91.566 29.3504 91.417 29.5364 91.2241 29.697C91.0313 29.8492 90.8033 29.9717 90.5403 30.0647C90.2861 30.1577 90.0099 30.2042 89.7118 30.2042C89.405 30.2042 89.1201 30.1577 88.8571 30.0647C88.6028 29.9717 88.3749 29.8492 88.1732 29.697C87.9804 29.5364 87.827 29.3504 87.713 29.1391C87.6078 28.9277 87.5552 28.6995 87.5552 28.4543Z" fill="white"/>
</svg>
