<svg width="51" height="17" viewBox="0 0 51 17" fill="none" xmlns="http://www.w3.org/2000/svg">
<path d="M16.5995 1.88465C16.5995 1.81733 16.6202 1.75778 16.6616 1.70599C16.7031 1.65421 16.7574 1.58689 16.8247 1.50403C16.9697 1.33832 17.138 1.16485 17.3296 0.983602C17.5212 0.797178 17.7154 0.618522 17.9122 0.447634C18.0365 0.349244 18.1297 0.300049 18.1919 0.300049C18.254 0.300049 18.3498 0.349244 18.4793 0.447634C18.8987 0.810124 19.256 1.16226 19.5512 1.50403C19.6185 1.58171 19.6729 1.64903 19.7143 1.70599C19.7609 1.75778 19.7842 1.81733 19.7842 1.88465C19.7842 1.95197 19.7609 2.01152 19.7143 2.0633C19.6729 2.11509 19.6159 2.185 19.5434 2.27303C19.4036 2.43356 19.2405 2.60704 19.0541 2.79346C18.8676 2.97471 18.676 3.14819 18.4793 3.31389C18.4068 3.37604 18.3498 3.41746 18.3084 3.43818C18.2669 3.45371 18.2281 3.46148 18.1919 3.46148C18.1556 3.46148 18.1168 3.45371 18.0753 3.43818C18.0391 3.41746 17.9795 3.37604 17.8967 3.31389C17.6895 3.14819 17.4954 2.97471 17.3141 2.79346C17.1329 2.60704 16.9697 2.42838 16.8247 2.2575C16.7574 2.17464 16.7031 2.10991 16.6616 2.0633C16.6202 2.01152 16.5995 1.95197 16.5995 1.88465ZM19.4114 12.037C19.4114 12.1923 19.3777 12.3011 19.3104 12.3632C19.2483 12.4202 19.1395 12.4486 18.9842 12.4486H17.384C17.2287 12.4486 17.1173 12.4202 17.05 12.3632C16.9879 12.3011 16.9568 12.1923 16.9568 12.037V4.90626C16.9568 4.75091 16.9879 4.64475 17.05 4.58779C17.1173 4.52565 17.2287 4.49458 17.384 4.49458H18.9842C19.1395 4.49458 19.2483 4.52565 19.3104 4.58779C19.3777 4.64475 19.4114 4.75091 19.4114 4.90626V12.037Z" fill="white"/>
<path d="M29.2141 7.50065V12.037C29.2141 12.1923 29.1805 12.3011 29.1132 12.3632C29.051 12.4202 28.9423 12.4486 28.7869 12.4486H27.1868C27.0314 12.4486 26.9201 12.4202 26.8528 12.3632C26.7906 12.3011 26.7596 12.1923 26.7596 12.037V7.90457C26.7596 7.34012 26.6405 6.92844 26.4023 6.66952C26.164 6.4106 25.8404 6.28113 25.4313 6.28113C25.0222 6.28113 24.7063 6.36917 24.4836 6.54523C24.2662 6.7213 24.0979 6.94397 23.9788 7.21325V12.037C23.9788 12.1923 23.9451 12.3011 23.8778 12.3632C23.8156 12.4202 23.7069 12.4486 23.5515 12.4486H21.9514C21.796 12.4486 21.6847 12.4202 21.6174 12.3632C21.5552 12.3011 21.5242 12.1923 21.5242 12.037V5.52767C21.5242 5.40339 21.5501 5.30759 21.6019 5.24027C21.7106 5.09527 21.8401 4.94769 21.9902 4.79751C22.1456 4.64734 22.3346 4.48681 22.5573 4.31592C22.6246 4.26414 22.6893 4.23824 22.7515 4.23824C22.8084 4.23824 22.8732 4.26414 22.9457 4.31592C23.1631 4.48681 23.3496 4.64993 23.5049 4.80528C23.6603 4.96064 23.7975 5.12117 23.9166 5.28688H23.9554C24.0435 5.17295 24.1755 5.0409 24.3516 4.89073C24.5277 4.73537 24.7736 4.59815 25.0895 4.47904C25.4106 4.35994 25.8197 4.30039 26.3168 4.30039C26.8036 4.30039 27.2671 4.39878 27.7072 4.59556C28.1474 4.79234 28.5073 5.12376 28.7869 5.58981C29.0717 6.05587 29.2141 6.69282 29.2141 7.50065Z" fill="white"/>
<path d="M36.2594 4.30039C37.0154 4.30039 37.6369 4.47127 38.1236 4.81305C38.6156 5.14965 38.9807 5.61571 39.2189 6.21123C39.4623 6.80157 39.584 7.47994 39.584 8.24635C39.584 9.0749 39.4415 9.82059 39.1567 10.4834C38.8771 11.1463 38.4628 11.6719 37.9139 12.0603C37.365 12.4486 36.684 12.6428 35.871 12.6428C35.4516 12.6428 35.1046 12.5936 34.8302 12.4953C34.5609 12.402 34.3434 12.2907 34.1777 12.1612C34.0171 12.0266 33.8903 11.9049 33.7971 11.7962H33.766V15.1052C33.766 15.2295 33.7401 15.3253 33.6883 15.3926C33.4708 15.6774 33.1523 15.9855 32.7329 16.3169C32.6604 16.3687 32.5957 16.3946 32.5387 16.3946C32.4766 16.3946 32.4118 16.3687 32.3445 16.3169C32.1218 16.146 31.9328 15.9855 31.7775 15.8353C31.6273 15.6852 31.4978 15.5376 31.3891 15.3926C31.3373 15.3253 31.3114 15.2295 31.3114 15.1052V5.52767C31.3114 5.40339 31.3373 5.30759 31.3891 5.24027C31.4978 5.09527 31.6273 4.94769 31.7775 4.79751C31.9328 4.64734 32.1218 4.48681 32.3445 4.31592C32.4118 4.26414 32.4817 4.23824 32.5542 4.23824C32.6216 4.23824 32.6915 4.26414 32.764 4.31592C32.9815 4.48681 33.1679 4.64993 33.3232 4.80528C33.4786 4.96064 33.6158 5.12117 33.7349 5.28688H33.7738C33.8618 5.17813 33.9964 5.04608 34.1777 4.89073C34.3589 4.73537 34.6152 4.59815 34.9467 4.47904C35.2833 4.35994 35.7208 4.30039 36.2594 4.30039ZM35.304 10.6621C35.8632 10.6621 36.2956 10.4679 36.6012 10.0795C36.9119 9.68595 37.0672 9.11891 37.0672 8.3784C37.0672 6.98022 36.4924 6.28113 35.3428 6.28113C34.856 6.28113 34.4961 6.38211 34.2631 6.58407C34.0301 6.78085 33.8644 6.99058 33.766 7.21325V8.89883C33.766 9.40114 33.8954 9.82059 34.1544 10.1572C34.4133 10.4938 34.7965 10.6621 35.304 10.6621Z" fill="white"/>
<path d="M40.8967 1.88465C40.8967 1.81733 40.9174 1.75778 40.9588 1.70599C41.0003 1.65421 41.0546 1.58689 41.1219 1.50403C41.2669 1.33832 41.4352 1.16485 41.6268 0.983602C41.8184 0.797178 42.0126 0.618522 42.2094 0.447634C42.3337 0.349244 42.4269 0.300049 42.4891 0.300049C42.5512 0.300049 42.647 0.349244 42.7765 0.447634C43.1959 0.810124 43.5532 1.16226 43.8484 1.50403C43.9157 1.58171 43.9701 1.64903 44.0115 1.70599C44.0581 1.75778 44.0814 1.81733 44.0814 1.88465C44.0814 1.95197 44.0581 2.01152 44.0115 2.0633C43.9701 2.11509 43.9131 2.185 43.8406 2.27303C43.7008 2.43356 43.5377 2.60704 43.3513 2.79346C43.1648 2.97471 42.9732 3.14819 42.7765 3.31389C42.704 3.37604 42.647 3.41746 42.6056 3.43818C42.5641 3.45371 42.5253 3.46148 42.4891 3.46148C42.4528 3.46148 42.414 3.45371 42.3725 3.43818C42.3363 3.41746 42.2767 3.37604 42.1939 3.31389C41.9867 3.14819 41.7926 2.97471 41.6113 2.79346C41.4301 2.60704 41.2669 2.42838 41.1219 2.2575C41.0546 2.17464 41.0003 2.10991 40.9588 2.0633C40.9174 2.01152 40.8967 1.95197 40.8967 1.88465ZM43.7086 12.037C43.7086 12.1923 43.6749 12.3011 43.6076 12.3632C43.5455 12.4202 43.4367 12.4486 43.2814 12.4486H41.6812C41.5259 12.4486 41.4145 12.4202 41.3472 12.3632C41.2851 12.3011 41.254 12.1923 41.254 12.037V4.90626C41.254 4.75091 41.2851 4.64475 41.3472 4.58779C41.4145 4.52565 41.5259 4.49458 41.6812 4.49458H43.2814C43.4367 4.49458 43.5455 4.52565 43.6076 4.58779C43.6749 4.64475 43.7086 4.75091 43.7086 4.90626V12.037Z" fill="white"/>
<path d="M48.9673 12.6428C47.2377 12.6428 46.3729 11.7444 46.3729 9.94746V6.30444H45.4951C45.3398 6.30444 45.231 6.27337 45.1689 6.21123C45.1119 6.14391 45.0834 6.03257 45.0834 5.87722V4.9218C45.0834 4.76644 45.1119 4.6577 45.1689 4.59556C45.231 4.52824 45.3398 4.49458 45.4951 4.49458H46.3729V3.24399C46.3729 3.1197 46.3988 3.0239 46.4505 2.95658C46.668 2.67177 46.9865 2.36365 47.406 2.03223C47.4785 1.98045 47.5432 1.95456 47.6002 1.95456C47.6623 1.95456 47.7244 1.98045 47.7866 2.03223C48.0093 2.20312 48.1957 2.36365 48.3459 2.51383C48.5012 2.664 48.6333 2.81159 48.742 2.95658C48.7938 3.0239 48.8197 3.1197 48.8197 3.24399V4.49458H50.1946C50.3499 4.49458 50.4561 4.52824 50.513 4.59556C50.5752 4.6577 50.6062 4.76644 50.6062 4.9218V5.87722C50.6062 6.03257 50.5752 6.14391 50.513 6.21123C50.4561 6.27337 50.3499 6.30444 50.1946 6.30444H48.8197V9.52024C48.8197 10.3488 49.12 10.7631 49.7207 10.7631C49.8139 10.7631 49.8994 10.7553 49.9771 10.7398C50.0547 10.719 50.1221 10.6983 50.179 10.6776C50.2878 10.6362 50.3629 10.6207 50.4043 10.631C50.4509 10.6414 50.4923 10.6983 50.5286 10.8019L50.9791 12.0059C51.0257 12.1353 50.9946 12.2286 50.8859 12.2855C50.8082 12.3218 50.6192 12.3891 50.3188 12.4875C50.0237 12.5911 49.5731 12.6428 48.9673 12.6428Z" fill="white"/>
<path d="M10.8001 0H1.04517C0.470328 0 0 0.470328 0 1.04517V14.0053C0 14.1579 0.100859 14.2844 0.238082 14.3313C0.244658 14.3347 0.248098 14.3395 0.256852 14.3419L8.08717 16.4713C8.75551 16.6521 9.40657 16.1497 9.40657 15.4629V14.3537H10.8001C11.375 14.3537 11.8453 13.8869 11.8453 13.3086V1.04517C11.8453 0.470328 11.375 0 10.8001 0ZM3.77308 3.7034C4.31308 2.99965 5.31994 2.95087 5.92265 3.56056C6.52537 2.95087 7.53222 2.99965 8.07223 3.7034C8.52165 4.28521 8.43107 5.12484 7.91545 5.64394L6.50098 7.07583C6.18046 7.39983 5.66484 7.39983 5.34432 7.07583L3.92985 5.64394C3.41424 5.12484 3.32365 4.28521 3.77308 3.7034ZM8.013 9.40657C8.013 9.59818 7.85623 9.75496 7.66461 9.75496H4.1807C3.98908 9.75496 3.8323 9.59818 3.8323 9.40657C3.8323 9.21495 3.98908 9.05818 4.1807 9.05818H7.66461C7.85623 9.05818 8.013 9.21495 8.013 9.40657ZM3.13552 10.8001H8.70978C8.9014 10.8001 9.05818 10.9569 9.05818 11.1485C9.05818 11.3401 8.9014 11.4969 8.70978 11.4969H3.13552C2.94391 11.4969 2.78713 11.3401 2.78713 11.1485C2.78713 10.9569 2.94391 10.8001 3.13552 10.8001ZM8.70978 15.4629C8.70978 15.6928 8.4913 15.8583 8.2702 15.7991L2.95688 14.3541H8.70978V15.4629Z" fill="white"/>
</svg>
