<svg width="15" height="15" viewBox="0 0 15 15" fill="none" xmlns="http://www.w3.org/2000/svg">
<g clip-path="url(#clip0_71_1276)">
<path fill-rule="evenodd" clip-rule="evenodd" d="M11.8658 10.5908C11.685 11.1025 10.9665 11.5257 10.3935 11.6495C10.0013 11.7328 9.48975 11.7987 7.76625 11.0845C5.8305 10.2825 3.1425 7.42573 3.1425 5.52466C3.1425 4.55687 3.7005 3.42993 4.67625 3.42993C5.14575 3.42993 5.24925 3.43909 5.40375 3.80969C5.5845 4.24633 6.0255 5.32209 6.078 5.43237C6.29475 5.88476 5.8575 6.14959 5.54025 6.54346C5.439 6.66199 5.32425 6.79018 5.4525 7.01074C5.58 7.22681 6.021 7.94554 6.669 8.52246C7.506 9.26819 8.18475 9.50626 8.42775 9.60754C8.6085 9.68257 8.8245 9.66509 8.9565 9.52405C9.12375 9.34325 9.3315 9.04327 9.543 8.74768C9.69225 8.53611 9.88201 8.50969 10.0808 8.58472C10.215 8.63123 11.9212 9.42363 11.9932 9.55042C12.0465 9.6427 12.0465 10.0792 11.8658 10.5908ZM7.5015 0H7.49775C3.363 0 0 3.36401 0 7.5C0 9.14 0.528755 10.6615 1.42801 11.8956L0.493504 14.6825L3.37576 13.7615C4.56151 14.5462 5.97675 15 7.5015 15C11.6362 15 15 11.636 15 7.5C15 3.36401 11.6362 0 7.5015 0Z" fill="white"/>
</g>
<defs>
<clipPath id="clip0_71_1276">
<rect width="15" height="15" fill="white"/>
</clipPath>
</defs>
</svg>
